<?xml version="1.0" encoding="UTF-8"?>
<svg id="Layer_1" xmlns="http://www.w3.org/2000/svg" version="1.1" viewBox="0 0 448 512">
  <!-- Generator: Adobe Illustrator 29.5.1, SVG Export Plug-In . SVG Version: 2.1.0 Build 141)  -->
  <defs>
    <style>
      .st0 {
        fill: #fff;
      }
    </style>
  </defs>
  <circle cx="224" cy="256.89" r="223"/>
  <g>
    <path class="st0" d="M224.58,281.66c0,4.48-.89,8.41-2.68,11.79-1.79,3.38-4.25,6.22-7.39,8.5-3.13,2.29-6.77,4.03-10.89,5.22-4.13,1.2-8.53,1.79-13.2,1.79h-51.18v-105.93h56.7c3.68,0,7.01.8,10,2.39,2.98,1.59,5.52,3.65,7.61,6.19,2.09,2.54,3.7,5.42,4.85,8.65,1.14,3.23,1.71,6.49,1.71,9.77,0,5.17-1.29,10.02-3.88,14.55-2.59,4.53-6.37,7.88-11.34,10.07,6.07,1.79,10.87,5,14.4,9.62,3.53,4.63,5.3,10.42,5.3,17.38ZM159.83,220.64v26.71h27.45c3.48,0,6.44-1.2,8.88-3.58,2.43-2.39,3.65-5.67,3.65-9.85s-1.12-7.31-3.36-9.7c-2.24-2.39-5-3.58-8.28-3.58h-28.35ZM203.84,277.78c0-1.89-.32-3.7-.97-5.45-.65-1.74-1.52-3.26-2.61-4.55-1.09-1.29-2.39-2.31-3.88-3.06-1.49-.75-3.13-1.12-4.92-1.12h-31.63v27.9h30.59c1.89,0,3.66-.35,5.3-1.04,1.64-.69,3.06-1.66,4.25-2.91,1.19-1.24,2.14-2.71,2.83-4.4.69-1.69,1.04-3.48,1.04-5.37Z"/>
    <path class="st0" d="M269.18,308.97c-6.07,0-11.56-1.04-16.48-3.11-9.74-4.15-16.6-11.11-20.6-20.89-1.88-4.72-2.82-9.69-2.82-14.89s.91-10.48,2.75-15.25c3.92-9.91,10.79-16.96,20.6-21.18,4.96-2.12,10.53-3.18,16.7-3.18s11.68,1.06,16.55,3.18c16,6.98,23.54,22.48,22.84,39.32-.05,1.16-.17,2.12-.36,2.89h-58.55c.29,2.99,1.01,5.64,2.17,7.95,1.16,2.31,2.65,4.29,4.48,5.93,1.83,1.64,3.9,2.89,6.22,3.76,2.31.87,4.72,1.3,7.23,1.3,3.85,0,7.49-.94,10.91-2.82,3.42-1.88,5.76-4.36,7.01-7.44l16.62,4.63c-2.8,5.78-7.25,10.53-13.37,14.24-6.12,3.71-13.42,5.56-21.9,5.56ZM288.84,263.28c-.48-5.69-2.58-10.24-6.29-13.66-3.71-3.42-8.22-5.13-13.52-5.13-2.6,0-5.04.46-7.3,1.37-2.27.92-4.26,2.19-6,3.83-1.73,1.64-3.16,3.61-4.26,5.93-1.11,2.31-1.76,4.87-1.95,7.66h39.32Z"/>
    <path class="st0" d="M243.69,208.06h50.69v12.58h-50.69v-12.58Z"/>
  </g>
</svg>