<?xml version="1.0" encoding="UTF-8"?>
<svg id="Layer_1" xmlns="http://www.w3.org/2000/svg" version="1.1" viewBox="0 0 448 512">
  <!-- Generator: Adobe Illustrator 29.5.1, SVG Export Plug-In . SVG Version: 2.1.0 Build 141)  -->
  <defs>
    <style>
      .st0 {
        fill: #fff;
      }
    </style>
  </defs>
  <circle cx="224" cy="256.89" r="223"/>
  <path class="st0" d="M224,173.41c-45.6,0-82.69,37.05-82.69,82.59s37.1,82.59,82.69,82.59,82.7-37.05,82.7-82.59-37.1-82.59-82.7-82.59h0ZM278.41,212.39c9.43,11.69,15.17,26.46,15.43,42.54-3.14-.64-16.43-3.12-32.32-3.12-5.13,0-10.52.26-15.93.92-.46-1.11-.91-2.22-1.39-3.33-1.4-3.3-2.91-6.57-4.48-9.8,24.45-10.07,36.24-24.05,38.69-27.22h0ZM224,186.34c17.62,0,33.73,6.55,46.03,17.33-1.95,2.66-12.51,15.86-36.08,24.77-10.91-19.95-22.86-36.46-25.7-40.3,5.07-1.17,10.34-1.8,15.75-1.8h0ZM193.99,193.11c2.41,3.32,14.37,20.01,25.56,39.8-30.04,7.9-56.71,8.41-63.15,8.41h-.68c4.62-21.31,19.03-39.02,38.27-48.21h0ZM154.13,256.11c0-.57.01-1.15.03-1.72.42,0,1.03,0,1.83,0,8.67,0,38.76-.72,69.78-9.92,1.88,3.68,3.67,7.42,5.34,11.15-.78.22-1.56.45-2.32.7-34.92,11.28-54.11,41.13-57.07,46.01-10.94-12.33-17.59-28.51-17.59-46.23h0ZM224,325.88c-16.02,0-30.81-5.43-42.61-14.53,2-3.91,16.48-29.99,54.75-43.31.02,0,.05-.02.08-.03,9.59,24.98,13.66,45.95,14.77,52.44-8.3,3.49-17.42,5.42-26.99,5.42h0ZM263.57,313.58c-.94-5.38-4.7-25.02-13.39-48.99,4.87-.76,9.61-1.06,14.06-1.06,14.6,0,26.02,3.2,28.68,4.01-3.15,19.03-14.05,35.5-29.35,46.04h0Z"/>
</svg>