<?xml version="1.0" encoding="UTF-8"?>
<svg id="Layer_1" xmlns="http://www.w3.org/2000/svg" version="1.1" viewBox="0 0 448 512">
  <!-- Generator: Adobe Illustrator 29.5.1, SVG Export Plug-In . SVG Version: 2.1.0 Build 141)  -->
  <defs>
    <style>
      .st0 {
        fill: #fff;
      }
    </style>
  </defs>
  <circle cx="224" cy="256.89" r="223"/>
  <path class="st0" d="M195.72,306.84c0,.69-.79,1.24-1.79,1.24-1.14.1-1.93-.45-1.93-1.24,0-.69.79-1.24,1.79-1.24,1.03-.1,1.93.45,1.93,1.24ZM185,305.29c-.24.69.45,1.48,1.48,1.69.9.34,1.93,0,2.14-.69s-.45-1.48-1.48-1.79c-.9-.24-1.89.1-2.14.79h0ZM200.23,304.71c-1,.24-1.69.9-1.58,1.69.1.69,1,1.14,2.03.9,1-.24,1.69-.9,1.58-1.58-.1-.65-1.03-1.1-2.03-1ZM222.9,172.7c-47.78,0-84.33,36.27-84.33,84.05,0,38.2,24.04,70.89,58.39,82.4,4.41.79,5.96-1.93,5.96-4.17s-.1-13.92-.1-21.15c0,0-24.11,5.17-29.18-10.27,0,0-3.93-10.02-9.58-12.61,0,0-7.89-5.41.55-5.31,0,0,8.58.69,13.3,8.89,7.54,13.3,20.19,9.47,25.11,7.2.79-5.51,3.03-9.34,5.51-11.61-19.26-2.14-38.69-4.93-38.69-38.07,0-9.47,2.62-14.23,8.13-20.29-.9-2.24-3.82-11.47.9-23.39,7.2-2.24,23.77,9.3,23.77,9.3,6.89-1.93,14.3-2.93,21.63-2.93s14.74,1,21.63,2.93c0,0,16.57-11.57,23.77-9.3,4.72,11.95,1.79,21.15.9,23.39,5.51,6.1,8.89,10.85,8.89,20.29,0,33.24-20.29,35.9-39.55,38.07,3.17,2.72,5.86,7.89,5.86,15.98,0,11.61-.1,25.97-.1,28.8,0,2.24,1.58,4.96,5.96,4.17,34.45-11.44,57.8-44.13,57.8-82.33,0-47.78-38.75-84.05-86.53-84.05ZM172.05,291.51c-.45.34-.34,1.14.24,1.79.55.55,1.34.79,1.79.34.45-.34.34-1.14-.24-1.79-.55-.55-1.34-.79-1.79-.34ZM168.33,288.72c-.24.45.1,1,.79,1.34.55.34,1.24.24,1.48-.24.24-.45-.1-1-.79-1.34-.69-.21-1.24-.1-1.48.24ZM179.49,300.99c-.55.45-.34,1.48.45,2.14.79.79,1.79.9,2.24.34.45-.45.24-1.48-.45-2.14-.76-.79-1.79-.9-2.24-.34ZM175.57,295.92c-.55.34-.55,1.24,0,2.03s1.48,1.14,1.93.79c.55-.45.55-1.34,0-2.14-.48-.79-1.38-1.14-1.93-.69h0Z"/>
</svg>