<?xml version="1.0" encoding="UTF-8"?>
<svg id="Layer_1" xmlns="http://www.w3.org/2000/svg" version="1.1" viewBox="0 0 448 512">
  <!-- Generator: Adobe Illustrator 29.5.1, SVG Export Plug-In . SVG Version: 2.1.0 Build 141)  -->
  <defs>
    <style>
      .st0 {
        fill: #fff;
      }
    </style>
  </defs>
  <circle cx="225" cy="256.89" r="223"/>
  <path class="st0" d="M140.56,227.71h39v125.27h-39v-125.27ZM160.06,165.45c12.47,0,22.58,10.12,22.58,22.56s-10.11,22.59-22.58,22.59-22.61-10.13-22.61-22.59,10.1-22.56,22.61-22.56"/>
  <path class="st0" d="M203.99,227.71h37.35v17.14h.51c5.21-9.86,17.91-20.24,36.87-20.24,39.42,0,46.69,25.93,46.69,59.67v68.71h-38.91v-60.91c0-14.54-.28-33.22-20.24-33.22s-23.36,15.82-23.36,32.16v61.97h-38.92v-125.27Z"/>
</svg>