<?xml version="1.0" encoding="UTF-8"?>
<svg id="Layer_1" xmlns="http://www.w3.org/2000/svg" version="1.1" viewBox="0 0 448 512">
  <!-- Generator: Adobe Illustrator 29.5.1, SVG Export Plug-In . SVG Version: 2.1.0 Build 141)  -->
  <defs>
    <style>
      .st0 {
        fill-rule: evenodd;
      }

      .st0, .st1 {
        fill: #fff;
      }
    </style>
  </defs>
  <circle cx="224" cy="256.89" r="223"/>
  <path class="st1" d="M139.71,341.87l12.26-45.73c-6.94-12.52-10.59-26.55-10.59-40.79,0-46.56,37.88-84.44,84.44-84.44s84.44,37.88,84.44,84.44-37.88,84.44-84.44,84.44c-13.98,0-27.78-3.53-40.14-10.23l-45.97,12.31ZM187.97,312.42l2.89,1.73c10.63,6.33,22.72,9.68,34.96,9.68,37.76,0,68.48-30.72,68.48-68.48s-30.72-68.48-68.48-68.48-68.48,30.72-68.48,68.48c0,12.47,3.46,24.74,10.01,35.5l1.78,2.92-6.84,25.53,25.68-6.88Z"/>
  <path class="st0" d="M256.26,268.63c-3.48-2.08-8-4.4-12.09-2.72-3.14,1.28-5.15,6.2-7.18,8.71-1.04,1.29-2.29,1.49-3.89.84-11.79-4.7-20.83-12.57-27.33-23.41-1.1-1.69-.9-3.01.42-4.58,1.97-2.31,4.43-4.94,4.97-8.06.53-3.12-.93-6.76-2.22-9.54-1.65-3.55-3.49-8.61-7.04-10.62-3.27-1.85-7.57-.81-10.48,1.56-5.03,4.09-7.45,10.5-7.38,16.86.02,1.81.24,3.61.66,5.35,1.01,4.19,2.95,8.11,5.13,11.83,1.64,2.81,3.43,5.53,5.36,8.15,6.31,8.57,14.15,16.01,23.24,21.58,4.54,2.78,9.43,5.22,14.49,6.89,5.68,1.88,10.74,3.83,16.87,2.66,6.42-1.22,12.75-5.19,15.3-11.38.75-1.83,1.13-3.87.71-5.81-.87-4-6.29-6.38-9.52-8.31Z"/>
</svg>